<?xml version="1.0" encoding="UTF-8"?>
<svg width="540px" height="108px" viewBox="0 0 540 108" version="1.1" xmlns="http://www.w3.org/2000/svg" xmlns:xlink="http://www.w3.org/1999/xlink">
    <!-- Generator: Sketch 47 (45396) - http://www.bohemiancoding.com/sketch -->
    <title>twitter button@2x</title>
    <desc>Created with Sketch.</desc>
    <defs>
        <linearGradient x1="4.8046875%" y1="8.94886364%" x2="95.6873498%" y2="100%" id="linearGradient-1">
            <stop stop-color="#0091EA" offset="0%"></stop>
            <stop stop-color="#50A6DA" offset="100%"></stop>
        </linearGradient>
        <rect id="path-2" x="0" y="0" width="520" height="88" rx="44"></rect>
        <filter x="-3.5%" y="-13.6%" width="106.9%" height="140.9%" filterUnits="objectBoundingBox" id="filter-3">
            <feOffset dx="0" dy="6" in="SourceAlpha" result="shadowOffsetOuter1"></feOffset>
            <feGaussianBlur stdDeviation="5" in="shadowOffsetOuter1" result="shadowBlurOuter1"></feGaussianBlur>
            <feColorMatrix values="0 0 0 0 0   0 0 0 0 0   0 0 0 0 0  0 0 0 0.172950634 0" type="matrix" in="shadowBlurOuter1"></feColorMatrix>
        </filter>
    </defs>
    <g id="principle" stroke="none" stroke-width="1" fill="none" fill-rule="evenodd">
        <g id="2-copy-4" transform="translate(-105.000000, -1162.000000)">
            <g id="twitter-button" transform="translate(115.000000, 1166.000000)">
                <g id="Rectangle">
                    <use fill="black" fill-opacity="1" filter="url(#filter-3)" xlink:href="#path-2"></use>
                    <use fill="url(#linearGradient-1)" fill-rule="evenodd" xlink:href="#path-2"></use>
                </g>
                <g id="Content" transform="translate(57.168831, 18.000000)" fill="#FFFFFF">
                    <g id="Group" transform="translate(0.000000, -0.000000)">
                        <text id="Login-with-Twitter" font-family="Nunito-Bold, Nunito" font-size="33" font-weight="bold" line-spacing="54" letter-spacing="0.916666687">
                            <tspan x="67" y="33">Login with Twitter</tspan>
                        </text>
                        <path d="M21.3645107,19.6726613 L21.459888,21.2453878 L19.8702667,21.052809 C14.084045,20.3145905 9.02904917,17.8110666 4.73707157,13.6064304 L2.63877141,11.5201606 L2.09830016,13.0607906 C0.9537728,16.4951118 1.68499861,20.1220117 4.06943061,22.5613426 C5.34112768,23.9093939 5.05499584,24.1019727 2.8613184,23.2995612 C2.09830016,23.0427895 1.4306592,22.8502108 1.36707435,22.9465002 C1.14452736,23.1711754 1.9075456,26.0919532 2.51160171,27.2474257 C3.3382048,28.8522487 5.02320341,30.4249752 6.86716416,31.3557725 L8.42499307,32.0939911 L6.58103232,32.1260876 C4.80065643,32.1260876 4.73707157,32.158184 4.92782613,32.8322097 C5.56367467,34.9184795 8.07527637,37.1331352 10.8730099,38.096029 L12.8441404,38.7700547 L11.1273493,39.7971414 C8.5839552,41.2735785 5.59546709,42.1080865 2.60697899,42.1722794 C1.17631979,42.2043758 0,42.3327617 0,42.4290511 C0,42.7500156 3.87867605,44.5474174 6.13593835,45.2535395 C12.9077252,47.3398094 20.9512092,46.4411085 26.9917702,42.8784015 C31.2837478,40.3427812 35.5757254,35.303637 37.5786483,30.4249752 C38.6595908,27.825162 39.7405333,23.074886 39.7405333,20.7960374 C39.7405333,19.3196002 39.8359106,19.1270215 41.6162865,17.3617162 C42.6654366,16.3346295 43.6510018,15.2112534 43.8417564,14.8902888 C44.1596806,14.2804561 44.1278882,14.2804561 42.5064744,14.8260959 C39.8041182,15.7889897 39.4226091,15.6606039 40.757891,14.2162632 C41.7434562,13.1891765 42.919776,11.3275818 42.919776,10.781942 C42.919776,10.6856526 42.4428896,10.8461349 41.9024183,11.1350031 C41.3301547,11.4559677 40.0584576,11.9374146 39.1046848,12.2262827 L37.3878938,12.7719225 L35.8300648,11.7127393 C34.9716693,11.1350031 33.7635571,10.4930739 33.1277086,10.3004951 C31.5062948,9.85114468 29.0264855,9.9153376 27.5640339,10.428881 C23.5899806,11.8732216 21.0783789,15.5964109 21.3645107,19.6726613 Z" id="Twitter"></path>
                    </g>
                </g>
            </g>
        </g>
    </g>
</svg>